<svg width="30" height="30" viewBox="0 0 30 30" fill="none" xmlns="http://www.w3.org/2000/svg">
<path fill-rule="evenodd" clip-rule="evenodd" d="M9.96456 5H30V6H9.96456C9.72194 7.69615 8.26324 9 6.5 9C4.73676 9 3.27806 7.69615 3.03544 6H0V5H3.03544C3.27806 3.30385 4.73676 2 6.5 2C8.26324 2 9.72194 3.30385 9.96456 5Z" fill="#5D5C61"/>
<path fill-rule="evenodd" clip-rule="evenodd" d="M9.96456 26H30V27H9.96456C9.72194 28.6961 8.26324 30 6.5 30C4.73676 30 3.27806 28.6961 3.03544 27H0V26H3.03544C3.27806 24.3039 4.73676 23 6.5 23C8.26324 23 9.72194 24.3039 9.96456 26Z" fill="#5D5C61"/>
<path fill-rule="evenodd" clip-rule="evenodd" d="M26.9646 15H30V16H26.9646C26.7219 17.6961 25.2632 19 23.5 19C21.7368 19 20.2781 17.6961 20.0354 16H0V15H20.0354C20.2781 13.3039 21.7368 12 23.5 12C25.2632 12 26.7219 13.3039 26.9646 15Z" fill="#5D5C61"/>
</svg>
