<svg width="24" height="24" viewBox="0 0 24 24" fill="none" xmlns="http://www.w3.org/2000/svg">
<g clip-path="url(#clip0_66_1309)">
<path d="M12.0002 5.75806C8.61308 5.75806 5.80664 8.51613 5.80664 11.9516C5.80664 15.3871 8.5647 18.1451 12.0002 18.1451C15.4357 18.1451 18.1937 15.3387 18.1937 11.9516C18.1937 8.5645 15.3873 5.75806 12.0002 5.75806ZM12.0002 15.9193C9.82277 15.9193 8.03243 14.129 8.03243 11.9516C8.03243 9.77419 9.82277 7.98385 12.0002 7.98385C14.1776 7.98385 15.9679 9.77419 15.9679 11.9516C15.9679 14.129 14.1776 15.9193 12.0002 15.9193Z" fill="#CBCACC"/>
<path d="M18.4355 7.01613C19.2104 7.01613 19.8387 6.38788 19.8387 5.6129C19.8387 4.83791 19.2104 4.20967 18.4355 4.20967C17.6605 4.20967 17.0322 4.83791 17.0322 5.6129C17.0322 6.38788 17.6605 7.01613 18.4355 7.01613Z" fill="#CBCACC"/>
<path d="M22.0645 1.98387C20.8064 0.677417 19.0161 0 16.9839 0H7.01613C2.80646 0 0 2.80646 0 7.01612V16.9355C0 19.0161 0.677417 20.8064 2.03227 22.1129C3.33873 23.3709 5.08065 24 7.06452 24L16.9355 24C19.0161 24 20.7581 23.3226 22.0161 22.1129C23.3226 20.8548 24 19.0645 24 16.9839V7.01612C24 4.98385 23.3226 3.24194 22.0645 1.98387H22.0645ZM21.871 16.9839C21.871 18.4839 21.3387 19.6935 20.4677 20.5161C19.5968 21.3387 18.3871 21.7742 16.9355 21.7742H7.06452C5.61292 21.7742 4.40323 21.3387 3.53227 20.5161C2.66129 19.6451 2.22581 18.4355 2.22581 16.9355V7.01614C2.22581 5.56454 2.66129 4.35485 3.53227 3.48389C4.35485 2.66131 5.61292 2.22583 7.06452 2.22583L17.0323 2.22581C18.4839 2.22581 19.6936 2.66129 20.5645 3.53227C21.3871 4.40325 21.871 5.61292 21.871 7.01614V16.9839H21.871Z" fill="#CBCACC"/>
</g>
<defs>
<clipPath id="clip0_66_1309">
<rect width="24" height="24" fill="white"/>
</clipPath>
</defs>
</svg>
