<svg width="24" height="24" viewBox="0 0 24 24" fill="none" xmlns="http://www.w3.org/2000/svg">
<path d="M12.0002 0C6.47709 0 2 4.1961 2 9.37255C2 16.3415 9.99696 24 12 24C14.003 24 22 16.3417 22 9.37236C22 4.1961 17.5231 0 12.0002 0ZM11.9998 15.0901C8.64872 15.0901 5.93233 12.544 5.93233 9.40327C5.93233 8.1583 6.36061 7.0077 7.08449 6.07104C7.16214 7.27377 8.22473 8.22743 9.52751 8.22743C10.881 8.22743 11.9781 7.19916 11.9781 5.9306C11.9781 5.02449 11.4168 4.24328 10.6034 3.86949C11.0519 3.77038 11.5192 3.71643 12 3.71643C15.3511 3.71643 18.0675 6.26232 18.0675 9.40309C18.0675 12.5438 15.3509 15.0901 11.9998 15.0901Z" fill="#CBCACC"/>
</svg>
