<svg width="24" height="24" viewBox="0 0 24 24" fill="none" xmlns="http://www.w3.org/2000/svg">
<g clip-path="url(#clip0_66_1333)">
<path d="M23.4986 6.62337C23.2227 5.59072 22.4095 4.77757 21.3768 4.50157C19.505 4 12 4 12 4C12 4 4.495 4 2.62319 4.50157C1.59072 4.77757 0.77738 5.59072 0.501426 6.62337C0 8.495 0 12.4002 0 12.4002C0 12.4002 0 16.3052 0.501426 18.1767C0.77738 19.2093 1.5907 20.0227 2.62319 20.2987C4.49501 20.8 12 20.8 12 20.8C12 20.8 19.505 20.8 21.3768 20.2987C22.4095 20.0227 23.2227 19.2093 23.4986 18.1767C24 16.3052 24 12.4002 24 12.4002C24 12.4002 24 8.495 23.4986 6.62337ZM9.59988 16.0002V8.80006L15.8352 12.4002L9.59988 16.0002Z" fill="#CBCACC"/>
</g>
<defs>
<clipPath id="clip0_66_1333">
<rect width="24" height="24" fill="white"/>
</clipPath>
</defs>
</svg>
